Jean Vigo’s second film is partly a homage to French swimming champion Jean Taris (who appears in the film as himself) but mainly as an experiment into the possibilities of underwater film photography.

Despite its short runtime, Taris is beautifully filmed and provided a source of inspiration to future film makers, most notably Jean Cocteau.

The experience that Vigo himself gained whilst making this film enabled him to realise the famous underwater dream sequence in his subsequent film L’Atalante, one of the most captivating and extraordinary scenes in cinematographic history.

General
Complete name : Taris.mkv
Format : Matroska
Format version : Version 2
File size : 366 MiB
Duration : 10mn 4s
Overall bit rate mode : Variable
Overall bit rate : 5 071 Kbps
Movie name : Taris
Encoded date : UTC 2011-09-26 06:21:02
Writing application : mkvmerge v4.6.0 ('Still Crazy After All These Years') built on Mar 10 2011 02:50:32
Writing library : libebml v1.2.0 + libmatroska v1.1.0

Video
ID : 1
Format : AVC
Format/Info : Advanced Video Codec
Format profile : High@L4.0
Format settings, CABAC : Yes
Format settings, ReFrames : 3 frames
Codec ID : V_MPEG4/ISO/AVC
Duration : 10mn 4s
Bit rate mode : Variable
Bit rate : 5 000 Kbps
Maximum bit rate : 25.0 Mbps
Width : 856 pixels
Height : 720 pixels
Display aspect ratio : 1.189
Frame rate : 23.976 fps
Color space : YUV
Chroma subsampling : 4:2:0
Bit depth : 8 bits
Scan type : Progressive
Bits/(Pixel*Frame) : 0.338
Stream size : 344 MiB (94%)
Writing library : x264 core 114 r1924 08d04a4

Audio
ID : 2
Format : AC-3
Format/Info : Audio Coding 3
Mode extension : CM (complete main)
Codec ID : A_AC3
Duration : 10mn 4s
Bit rate mode : Constant
Bit rate : 192 Kbps
Channel(s) : 1 channel
Channel positions : Front: C
Sampling rate : 48.0 KHz
Bit depth : 16 bits
Compression mode : Lossy
Stream size : 13.8 MiB (4%)
Language : French

Text
ID : 3
Format : UTF-8
Codec ID : S_TEXT/UTF8
Codec ID/Info : UTF-8 Plain Text
Language : English
 
http://www.imdb.com/title/tt0022462/

French audio; English subtitle muxed in mkv

Posted at KG by klankking

Jean Vigo - Taris, roi de l'eau (1931)